PathFileType	4	(X/Y/Z)	C:/Users/beibeiliu/ov580/test_trc/capture2\sequence.4_training_dense_left.trc
DataRate	CameraRate	NumFrames	NumMarkers	Units	OrigDataRate	OrigDataStartFrame	OrigNumFrames
120	120	10	19	mm	120	1	355
Frame#	Time	ThumbCMC			ThumbMCP			ThumbIP			ThumbTip			IndexMCP			IndexPIP			IndexTip			MiddleMCP			MiddlePIP			MiddleTip			RingMCP			RingPIP			RingTip			PinkyMCP			PinkyPIP			PinkyTip			BackHand1			BackHand2			BackHand3	
		X0	Y0	Z0	X1	Y1	Z1	X2	Y2	Z2	X3	Y3	Z3	X4	Y4	Z4	X5	Y5	Z5	X6	Y6	Z6	X7	Y7	Z7	X8	Y8	Z8	X9	Y9	Z9	X10	Y10	Z10	X11	Y11	Z11	X12	Y12	Z12	X13	Y13	Z13	X14	Y14	Z14	X15	Y15	Z15	X16	Y16	Z16	X17	Y17	Z17	X18	Y18	Z18	
0	0	-120.7	21.1408	-19.3785	-103.252	5.22313	-31.6799	-79.928	-1.03288	-45.5037	-61.506	-7.76848	-60.5055	-122.334	30.1928	-95.323	-113.707	26.582	-118.798	-108.63	24.7901	-148.609	-142.313	31.677	-107.571	-140.974	27.5768	-134.204	-140.429	21.1224	-162.498	-161.897	28.7618	-108.682	-163.099	25.3453	-129.941	-163.181	19.0404	-156.201	-189.024	23.1833	-99.0376	-191.982	18.723	-116.706	-193.755	20.52	-142.105	-170.817	43.3016	-60.9368	-177.903	48.1535	-27.1933	-143.869	45.1609	-39.7623	
1	0.00833333	-121.42	19.5809	-21.5513	-101.448	5.28662	-32.4129	-83.9409	-1.97207	-48.1069	-62.106	-8.87153	-60.923	-121.993	29.3446	-96.661	-114.008	25.9598	-122.867	-109.929	23.2233	-149.36	-140.769	31.0221	-109.585	-139.686	27.3881	-131.367	-139.872	20.2864	-162.429	-166.103	28.7494	-107.16	-161.683	23.8721	-129.854	-161.478	18.2343	-160.875	-186.198	21.904	-94.6823	-191.934	18.0864	-121.576	-196.07	21.1759	-140.604	-173.477	41.6655	-57.3819	-175.965	47.833	-29.5343	-142.443	43.0887	-40.9204	
2	0.0166667	-121.034	18.9001	-19.5389	-103.012	4.97852	-30.4237	-78.1565	-2.86794	-48.7962	-64.7198	-8.51492	-58.5501	-115.012	28.0621	-98.8519	-113.227	25.0841	-120.473	-105.422	23.1838	-144.335	-142.028	31.2734	-106.503	-138.263	26.414	-132.417	-135.219	20.1463	-160.198	-159.947	27.7405	-104.454	-160.123	22.0389	-134.14	-161.207	17.2595	-159.725	-186.117	22.6026	-96.3139	-190.695	17.1146	-119.379	-193.03	17.8008	-141.135	-172.573	42.0803	-58.1684	-174.197	45.8438	-29.5818	-143.297	42.8177	-38.4057	
3	0.025	-115.532	18.486	-23.051	-101.193	4.18417	-33.2836	-79.2489	-2.90326	-47.4553	-63.0698	-8.66453	-56.031	-116.488	27.5727	-98.6461	-106.921	24.6598	-122.654	-109.357	22.5949	-144.19	-138.622	30.4555	-104.747	-137.034	25.7954	-134.338	-136.578	19.9327	-161.075	-157.938	27.3632	-106.991	-159.88	22.1277	-132.85	-158.237	17.8632	-154.511	-180.467	21.4578	-94.4483	-184.873	18.3351	-118.98	-191.742	19.6875	-141.349	-169.076	40.2865	-60.516	-176.402	46.1189	-31.4204	-139.924	42.4876	-40.9569	
4	0.0333333	-119.639	18.3855	-20.2694	-98.1064	3.8133	-33.8976	-76.2208	-3.02002	-44.4062	-58.6849	-9.1501	-55.431	-113	27.7808	-94.4919	-107.969	24.8977	-117.757	-103.143	22.8261	-142.519	-134.293	30.9741	-109.819	-132.82	24.444	-135.783	-132.936	20.3572	-158.925	-161.406	27.0172	-106.47	-156.858	22.5848	-133.952	-158.023	16.2942	-159.124	-184.44	21.5289	-97.1772	-182.475	17.5568	-117.439	-190.381	19.1385	-141.723	-168.505	42.0081	-59.954	-169.262	46.2352	-31.5251	-139.527	41.492	-40.8185	
5	0.0416667	-117.132	18.0538	-23.7713	-98.5057	4.214	-33.253	-76.1053	-3.15886	-48.7118	-57.0777	-9.46144	-56.1808	-111.459	27.3564	-92.9371	-108.93	23.832	-122.043	-102.807	21.9913	-142.402	-137.496	30.1165	-109.044	-132.772	25.5594	-132.992	-134.756	19.7259	-160.187	-160.614	27.1173	-106.475	-158.494	22.2526	-133.986	-158.152	16.7217	-156.263	-180.961	22.0748	-96.6706	-181.757	17.1909	-115.545	-189.531	16.2863	-140.873	-165.025	41.5746	-55.7454	-171.323	45.5606	-29.8248	-135.764	41.3031	-38.5558	
6	0.05	-114.135	18.5581	-22.525	-95.3326	4.12118	-32.9421	-78.64	-3.97556	-45.2529	-59.6104	-8.96836	-57.2298	-113.841	27.4961	-98.5375	-105.793	23.413	-117.194	-104.656	21.4565	-143.058	-137.675	30.1916	-109.386	-132.271	25.6848	-130.459	-131.79	20.1702	-161.63	-155.559	27.0024	-103.277	-156.957	22.4385	-130.577	-153.059	17.0837	-159.236	-182.674	21.4696	-96.692	-183.802	16.3633	-120.876	-188.824	16.5836	-142.231	-163.634	39.3969	-54.8053	-172.447	45.9272	-28.2323	-138.413	43.4705	-37.8442	
7	0.0583333	-115.22	19.115	-17.811	-96.9429	3.89012	-30.3645	-73.3444	-2.71485	-47.3245	-56.6641	-8.43107	-55.4661	-112.375	28.0563	-96.7692	-103.852	22.8943	-121.614	-105.096	21.7593	-143.34	-135.124	29.8961	-108.609	-132.436	25.1768	-131.289	-127.304	18.3888	-163.451	-154.565	27.2563	-104.42	-158.743	22.2745	-131.255	-155.807	16.9269	-155.803	-181.564	22.4392	-98.9359	-182.357	16.9883	-117.138	-187.722	15.8908	-144.969	-168.261	40.1669	-55.8024	-171.402	45.4885	-29.9522	-134.688	43.7646	-38.0119	
8	0.0666667	-115.003	17.7496	-20.5754	-96.9151	3.26319	-33.437	-78.0197	-3.16038	-47.7361	-56.7527	-8.69757	-60.5521	-112.696	28.0354	-94.2616	-105.108	23.8038	-122.557	-99.4505	20.3645	-146.921	-134.759	30.3051	-105.106	-134.357	24.9684	-135.049	-130.072	18.8395	-161.104	-156.208	27.4985	-106.326	-158.049	22.7147	-130.671	-152.16	16.2845	-157.901	-181.893	21.8753	-94.3263	-182.201	17.0744	-115.912	-188.594	16.7993	-142.604	-165.181	39.1913	-56.9196	-172.545	45.0019	-27.128	-136.871	41.4654	-37.2062	
9	0.075	-117.648	17.6431	-19.6055	-93.9426	2.82004	-31.1305	-74.6888	-3.01227	-43.6259	-60.84	-10.3374	-58.2478	-111.426	27.0314	-95.2718	-108.418	24.0137	-118.372	-103.738	21.3914	-144.88	-133.011	30.1967	-107.22	-130.491	25.5281	-132.346	-129.677	18.8137	-159.521	-152.847	27.5761	-106.947	-159.144	23.5287	-129.301	-154.343	16.1352	-156.329	-177.355	21.4189	-93.4477	-183.394	16.6573	-118.773	-186.68	15.9812	-141.734	-167.857	39.9941	-56.9557	-171.203	45.4292	-31.185	-135.953	41.6463	-36.3637	
